# xmcd
#
# Track frame offsets: 
#        150
#        17017
#        38383
#        56194
#        75189
#        95663
#        105820
#        129918
#        146711
#        162924
#        173440
#        191398
#        201198
#        212003
#        224994
#        235028
#        246828
#        260230
#        275050
#        280806
#
# Disc length: 3916 seconds
#
# Revision: 0
# Processed by: cddbd v1.5.2PL0 Copyright (c) Steve Scherf et al.
# Submitted via: ExactAudioCopy v0.99pb5
#
DISCID=1b0f4a14
DTITLE=Jerry Lee Lewis - Old Time Religion
DYEAR=2011
DGENRE=Gospel
TTITLE0=Looking For A City
TTITLE1=I'm Longing For Home
TTITLE2=Life's Railway To Heaven
TTITLE3=Someone Who Cares For You
TTITLE4=If We Ever Meet Again - I'm Gonna Meet You In The Morning
TTITLE5=On The Sawdust Trail
TTITLE6=There'll Be Peace In The Valley
TTITLE7=Precious Memories
TTITLE8=The Old Rugged Cross
TTITLE9=It Will Be Worth It All
TTITLE10=I Know That Jesus Will Be There
TTITLE11=I'm In The Gloryland Way
TTITLE12=Tomorrow May Mean Goodbye
TTITLE13=Amazing Grace
TTITLE14=On The Jericho Road
TTITLE15=I'll Fly Away
TTITLE16=My God Is Real
TTITLE17=When Jesus Beckons Me Home
TTITLE18=I Won't Have To Cross Jordan Alone
TTITLE19=Keep On The Firing Line
EXTD=
EXTT0=
EXTT1=
EXTT2=
EXTT3=
EXTT4=
EXTT5=
EXTT6=
EXTT7=
EXTT8=
EXTT9=
EXTT10=
EXTT11=
EXTT12=
EXTT13=
EXTT14=
EXTT15=
EXTT16=
EXTT17=
EXTT18=
EXTT19=
PLAYORDER=
